<svg width="56" height="56" viewBox="0 0 56 56" fill="none" xmlns="http://www.w3.org/2000/svg">
<path d="M49 49L35 35M39.6667 23.3333C39.6667 25.4783 39.2442 27.6022 38.4234 29.5838C37.6025 31.5655 36.3994 33.3661 34.8827 34.8827C33.3661 36.3994 31.5655 37.6025 29.5838 38.4234C27.6022 39.2442 25.4783 39.6667 23.3333 39.6667C21.1884 39.6667 19.0645 39.2442 17.0828 38.4234C15.1012 37.6025 13.3006 36.3994 11.7839 34.8827C10.2672 33.3661 9.06413 31.5655 8.2433 29.5838C7.42247 27.6022 7 25.4783 7 23.3333C7 19.0015 8.72083 14.847 11.7839 11.7839C14.847 8.72083 19.0015 7 23.3333 7C27.6652 7 31.8196 8.72083 34.8827 11.7839C37.9458 14.847 39.6667 19.0015 39.6667 23.3333Z" stroke="white" stroke-width="2" stroke-linecap="round" stroke-linejoin="round"/>
</svg>
