<svg width="48" height="48" viewBox="0 0 48 48" fill="none" xmlns="http://www.w3.org/2000/svg">
<path d="M6 37V38H7H30.05H31.05V37V28.85V27.85H30.05H7H6V28.85V37ZM32.05 37V38H33.05H41H42V37V17.7V16.7H41H33.05H32.05V17.7V37ZM6 25.85V26.85H7H30.05H31.05V25.85V17.7V16.7H30.05H7H6V17.7V25.85ZM7 39C6.48255 39 6.0322 38.818 5.60711 38.3929C5.18202 37.9678 5 37.5174 5 37V11C5 10.4826 5.18202 10.0322 5.60711 9.60711C6.0322 9.18202 6.48255 9 7 9H41C41.5174 9 41.9678 9.18202 42.3929 9.60711C42.818 10.0322 43 10.4826 43 11V37C43 37.5174 42.818 37.9678 42.3929 38.3929C41.9678 38.818 41.5174 39 41 39H7Z" stroke="white" stroke-width="2"/>
</svg>
